<?xml version="1.0" encoding="utf-8"?>
<!-- Generator: Adobe Illustrator 27.6.1, SVG Export Plug-In . SVG Version: 6.00 Build 0)  -->
<svg version="1.1" id="Calque_1" xmlns="http://www.w3.org/2000/svg" xmlns:xlink="http://www.w3.org/1999/xlink" x="0px" y="0px"
	 viewBox="0 0 1190.6 841.9" style="enable-background:new 0 0 1190.6 841.9;" xml:space="preserve">
<style type="text/css">
	.st0{fill:#0666B0;}
	.st1{fill:#E62A37;}
	.st2{fill:#1067AF;}
	.st3{fill:#FFFFFF;}
</style>
<g>
	<g>
		<path class="st0" d="M756,249.7c2.5,2.5,2.5,6.5-0.1,9.1L608.7,406c-12.2-77.7,45.5-154.2,81.4-185.3
			c-40.4,15.5-86.8-9.3-95.2-49.8c0,0-95.3,75.4-53,195L434.8,258.7c-2.5-2.5-2.5-6.5,0.1-9.1l156-156c2.5-2.5,6.6-2.6,9.1-0.1
			L756,249.7z"/>
	</g>
	<path class="st1" d="M557.9,355.6c-20.4-61.1-6.9-129.2,36.7-184c-2.2,32.5,23.5,61,53.8,64.5c-35.3,42.9-56.8,106.2-47.6,170.1
		c0,0,2.1,9.9-4.2,10.7C585.4,418.3,563.7,372.9,557.9,355.6z"/>
</g>
<g>
	<path class="st0" d="M455.1,503.5c6.5,0,12.1-2.1,16.2-6.2c4-4,6.2-9.6,6.2-16.2v-25c0-6.5-2.1-12.1-6.2-16.2
		c-4-4-9.6-6.2-16.2-6.2c-6.5,0-12.1,2.1-16.2,6.2c-4,4-6.2,9.6-6.2,16.2v25c0,6.5,2.1,12.1,6.2,16.2
		C443,501.4,448.6,503.5,455.1,503.5z M441,481.5V456c0-4.4,1.3-8,3.8-10.5c2.5-2.5,6-3.8,10.2-3.8s7.7,1.3,10.2,3.8
		c2.5,2.5,3.8,6.1,3.8,10.5v25.4c0,4.3-1.3,7.9-3.8,10.4c-2.5,2.5-6,3.8-10.2,3.8s-7.7-1.3-10.2-3.8
		C442.4,489.4,441,485.8,441,481.5z"/>
	<path class="st0" d="M499.8,441.7c1.1,0,1.9,0.2,2.7,0.3c0.7,0.1,1.4,0.3,2.2,0.3c1.9,0,4-1.4,4-3.9c0-1.9-1.3-3.5-3.3-3.9
		c-1.8-0.4-3.7-0.6-5.5-0.6c-7.3,0-13.2,5.9-13.2,13.2v52.4c0,2.3,1.8,4.1,4.1,4.1c2.3,0,4.1-1.8,4.1-4.1v-38h10c2.3,0,4-1.7,4-3.9
		c0-2.2-1.7-4-4-4h-10v-6.9C494.7,444,497,441.7,499.8,441.7z"/>
	<path class="st2" d="M546,444.2c2.8,0,5.1-2.3,5.1-5.2c0-2.8-2.3-5.1-5.1-5.1c-2.8,0-5.1,2.3-5.1,5.1
		C540.9,441.8,543.2,444.2,546,444.2z"/>
	<path class="st0" d="M522.1,499.5v-38h10c2.3,0,4-1.7,4-3.9c0-2.2-1.7-4-4-4h-10v-6.9c0-2.9,2.2-5.1,5.1-5.1c1.1,0,1.9,0.2,2.7,0.3
		c0.7,0.1,1.4,0.3,2.2,0.3c1.9,0,4-1.4,4-3.9c0-1.9-1.3-3.5-3.3-3.9c-1.8-0.4-3.7-0.6-5.5-0.6c-7.3,0-13.2,5.9-13.2,13.2v52.4
		c0,2.3,1.8,4.1,4.1,4.1C520.3,503.5,522.1,501.8,522.1,499.5z"/>
	<path class="st0" d="M546,452.7c-2.2,0-4.1,1.9-4.1,4.1v42.7c0,2.3,1.8,4.1,4.1,4.1c2.3,0,4.1-1.8,4.1-4.1v-42.7
		C550.1,454.6,548.2,452.7,546,452.7z"/>
	<path class="st0" d="M577.9,503.5c4.5,0,8.8-1,12.7-2.9c1.4-0.7,2.3-2.1,2.3-3.6c0-2.1-1.8-3.9-4.1-3.9c-0.8,0-1.6,0.4-1.8,0.5
		c-2.9,1.5-6.2,2.3-9.1,2.3c-6.3,0-10-3.6-10-10v-15.6c0-6.3,3.6-10,10-10c2.9,0,6,0.8,9.2,2.4c0.6,0.2,1.2,0.3,1.7,0.3
		c2.3,0,4.1-1.7,4.1-3.9c0-1.5-0.9-2.9-2.3-3.6c-4-1.9-8.2-2.9-12.7-2.9c-10.8,0-18.1,7.3-18.1,18.1v14.6
		C559.8,496.3,567.1,503.5,577.9,503.5z"/>
	<path class="st0" d="M615.9,503.5c5,0,9.6-1,13.9-3.1c1.4-0.7,2.3-2,2.3-3.6c0-2.2-1.8-3.9-4.1-3.9c-0.6,0-1,0.1-1.7,0.4
		c-3.9,1.7-7.2,2.6-10.4,2.6c-6.2,0-10-4-10-10.5V481h22.7c2.9,0,5.3-2.4,5.3-5.3v-4.9c0-10.8-7.2-18.1-18-18.1
		c-10.8,0-18.1,7.3-18.1,18.1v14.6C597.8,496.3,605.1,503.5,615.9,503.5z M605.9,473.4v-3c0-6.3,3.6-10,10-10c6.2,0,9.9,3.7,9.9,10
		v3H605.9z"/>
	<path class="st0" d="M655.7,495.9c-3.1,0-6.1-0.7-9.8-2.3l-0.2-0.1c-0.4-0.2-0.9-0.4-1.4-0.4c-2.3,0-4.1,1.7-4.1,3.9
		c0,1.7,0.9,3,2.4,3.7c4.1,1.9,8.1,2.8,12.8,2.8c9.1,0,15.9-6.4,15.9-14.8c0-5.9-3.7-10.8-10-13.3l-8.9-3.6
		c-1.9-0.8-4.2-2.4-4.2-5.7c0-4.2,3.9-5.7,7.3-5.7c3.4,0,6.6,0.7,9.5,2c0.6,0.2,1.1,0.3,1.5,0.3c2.3,0,4.1-1.6,4.1-3.8
		c0-1.6-0.9-3.1-2.5-3.8c-3.7-1.6-7.6-2.4-11.8-2.4c-9.3,0-16.1,5.8-16.1,13.7c0,6,2.9,10.3,8.7,12.8l8.9,3.7c4,1.7,5.4,3.6,5.4,6.9
		C663.2,493.8,659.4,495.9,655.7,495.9z"/>
	<path class="st0" d="M478,528.8c0-2.2-1.9-4.1-4.1-4.1h-37.8c-2.3,0-4.1,1.8-4.1,4.1c0,2.2,1.8,4,4.1,4h14.7v56.5
		c0,2.3,1.9,4.2,4.2,4.2c2.3,0,4.2-1.9,4.2-4.2v-56.5H474C476.2,532.7,478,530.9,478,528.8z"/>
	<path class="st0" d="M489.6,542.6c-11.3,0-19,7.7-19,19v12.7c0,11.4,7.6,19,19,19s19-7.7,19-19v-12.7
		C508.6,550.3,500.9,542.6,489.6,542.6z M500.4,561.2v13.7c0,6.9-3.9,10.9-10.8,10.9c-6.9,0-10.8-4-10.8-10.9v-13.7
		c0-6.9,3.9-10.9,10.8-10.9C496.5,550.3,500.4,554.3,500.4,561.2z"/>
	<path class="st0" d="M535.3,593.4c4.8,0,9.7-0.8,14.5-2.4c2.1-0.7,3.5-2.7,3.5-5v-39.4c0-2.2-1.9-4.1-4.1-4.1
		c-2.2,0-4.1,1.9-4.1,4.1v37.7c-3.2,0.9-6.6,1.4-9.9,1.4c-6.3,0-10-3.6-10-10v-29.1c0-2.2-1.9-4.1-4.1-4.1c-2.2,0-4.1,1.9-4.1,4.1
		v28.7C517.2,586.3,524.3,593.4,535.3,593.4z"/>
	<path class="st0" d="M584.5,543.4c-2.5-0.5-4.8-0.8-7-0.8c-7.6,0-13.2,5.8-13.2,13.9v32.9c0,2.3,1.8,4.1,4.1,4.1
		c2.3,0,4.1-1.8,4.1-4.1v-33.2c0-3.4,2-5.7,5.1-5.7c1.4,0,2.7,0.1,4.4,0.5c0.2,0,0.4,0.1,0.6,0.1c0.4,0.1,0.8,0.2,1.2,0.2
		c2.3,0,4.1-1.7,4.1-3.9C587.7,545.4,586.3,543.7,584.5,543.4z"/>
	<path class="st0" d="M598.7,542.6c-2.2,0-4.1,1.9-4.1,4.1v42.7c0,2.3,1.8,4.1,4.1,4.1c2.3,0,4.1-1.8,4.1-4.1v-42.7
		C602.7,544.5,600.9,542.6,598.7,542.6z"/>
	<path class="st0" d="M598.7,534.1c2.8,0,5.1-2.3,5.1-5.2c0-2.8-2.3-5.1-5.1-5.1c-2.8,0-5.1,2.3-5.1,5.1
		C593.6,531.7,595.9,534.1,598.7,534.1z"/>
	<path class="st0" d="M643.5,578.6c0-5.9-3.7-10.8-10-13.3l-8.9-3.6c-1.9-0.8-4.2-2.4-4.2-5.7c0-4.2,3.9-5.7,7.3-5.7
		c3.4,0,6.6,0.7,9.5,2c0.6,0.2,1.1,0.3,1.5,0.3c2.3,0,4.1-1.6,4.1-3.8c0-1.6-0.9-3.1-2.5-3.8c-3.7-1.6-7.6-2.4-11.8-2.4
		c-9.3,0-16.1,5.8-16.1,13.7c0,6,2.9,10.3,8.7,12.8l8.9,3.7c4,1.7,5.4,3.6,5.4,6.9c0,4-3.8,6.1-7.5,6.1c-3.1,0-6.1-0.7-9.8-2.3
		l-0.2-0.1c-0.4-0.2-0.9-0.4-1.4-0.4c-2.3,0-4.1,1.7-4.1,3.9c0,1.7,0.9,3,2.4,3.7c4.1,1.9,8.1,2.8,12.8,2.8
		C636.7,593.4,643.5,587.1,643.5,578.6z"/>
	<path class="st0" d="M686.2,589.4v-36.3c2.6-1.8,5.8-2.8,9-2.8c4.9,0,8.9,4,8.9,8.9v30.2c0,2.3,1.8,4.1,4.1,4.1s4.1-1.8,4.1-4.1
		v-29.7c0-9.4-7.6-17.1-17-17.1c-4.6,0-9.3,1.5-13.3,4.1c-2.9-2.6-6.9-4.1-11.3-4.1c-5.1,0-9.8,0.9-14.9,2.8c-2,0.8-3.4,2.7-3.4,4.8
		v39.1c0,2.3,1.8,4.1,4.1,4.1s4.1-1.8,4.1-4.1v-37.6c3.3-1.1,6.5-1.6,10.2-1.6c3.8,0,7.6,2,7.6,5.8v33.3c0,2.3,1.8,4.1,4.1,4.1
		C684.5,593.4,686.2,591.6,686.2,589.4z"/>
	<path class="st0" d="M738.9,542.6c-10.8,0-18.1,7.3-18.1,18.1v14.6c0,10.8,7.3,18.1,18.1,18.1c5,0,9.6-1,13.9-3.1
		c1.4-0.7,2.3-2.1,2.3-3.6c0-2.2-1.8-3.9-4.1-3.9c-0.6,0-1,0.1-1.7,0.4c-3.9,1.7-7.2,2.6-10.4,2.6c-6.2,0-10-4-10-10.5v-4.4h22.7
		c2.9,0,5.3-2.4,5.3-5.3v-4.9C756.9,549.9,749.7,542.6,738.9,542.6z M748.8,560.3v3h-19.9v-3c0-6.3,3.6-10,10-10
		C745.1,550.3,748.8,554,748.8,560.3z"/>
	<path class="st0" d="M551.7,613.8h-27.1c-2.9,0-5.3,2.4-5.3,5.3v59.4c0,2.2,1.9,4.1,4.2,4.1s4.2-1.8,4.2-4.1v-28h22.8
		c2.2,0,4.1-1.8,4.1-4c0-2.3-1.8-4.1-4.1-4.1h-22.8v-20.6h24c2.2,0,4.1-1.8,4.1-4C555.8,615.6,554,613.8,551.7,613.8z"/>
	<path class="st0" d="M582.7,632.5c-2.5-0.5-4.8-0.8-7-0.8c-7.6,0-13.2,5.8-13.2,13.9v32.9c0,2.3,1.8,4.1,4.1,4.1s4.1-1.8,4.1-4.1
		v-33.2c0-3.4,2-5.7,5.1-5.7c1.4,0,2.7,0.1,4.4,0.5c0.2,0,0.4,0.1,0.6,0.1c0.4,0.1,0.8,0.2,1.2,0.2c2.3,0,4.1-1.7,4.1-3.9
		C585.9,634.5,584.5,632.8,582.7,632.5z"/>
	<path class="st0" d="M606.8,631.7c-5.3,0-10.3,1.3-14.4,3.9c-1.3,0.8-2,2.1-2,3.5c0,2.2,1.7,3.9,4.1,3.9c0.7,0,1.3-0.2,1.9-0.6
		c3.6-2.1,6.9-3.1,10.4-3.1c5.8,0,9.1,2.8,9.1,7.6v5.1h-9.9c-6.2,0-10.7,1.3-13.7,4c-2.9,2.7-4.4,6.5-4.4,11.1
		c0,4.7,1.5,8.5,4.4,11.1c3.1,2.8,7.7,4.3,13.7,4.3c4.8,0,9.6-0.8,14.4-2.4c2.1-0.7,3.6-2.7,3.6-5v-28.3
		C624.1,637.7,617.3,631.7,606.8,631.7z M616,659.7v13.8c-3.2,0.9-6.6,1.4-9.9,1.4c-8.9,0-10-4.1-10-7.7c0-3.7,1.2-7.4,10-7.4H616z"
		/>
	<path class="st0" d="M653.7,631.7c-5.2,0-10.1,0.8-14.5,2.4c-2.2,0.8-3.6,2.7-3.6,4.9v39.4c0,2.3,1.8,4.1,4.1,4.1
		c2.3,0,4.1-1.8,4.1-4.1v-37.7c3.2-0.9,6.6-1.4,10-1.4c6.2,0,9.9,3.7,9.9,10v29.1c0,2.3,1.8,4.1,4.1,4.1c2.3,0,4.1-1.8,4.1-4.1
		v-28.7C671.7,639,664.5,631.7,653.7,631.7z"/>
	<path class="st0" d="M699.4,639.4c2.9,0,6,0.8,9.2,2.4c0.6,0.2,1.2,0.3,1.7,0.3c2.3,0,4.1-1.7,4.1-3.9c0-1.5-0.9-2.9-2.3-3.6
		c-4-1.9-8.2-2.9-12.7-2.9c-10.8,0-18.1,7.3-18.1,18.1v14.6c0,10.8,7.3,18.1,18.1,18.1c4.5,0,8.8-1,12.7-2.9
		c1.4-0.7,2.3-2.1,2.3-3.6c0-2.1-1.8-3.9-4.1-3.9c-0.8,0-1.6,0.4-1.8,0.5c-2.9,1.5-6.2,2.3-9.1,2.3c-6.3,0-10-3.6-10-10v-15.6
		C689.4,643,693.1,639.4,699.4,639.4z"/>
	<path class="st0" d="M738.8,631.7c-10.8,0-18.1,7.3-18.1,18.1v14.6c0,10.8,7.3,18.1,18.1,18.1c5,0,9.6-1,13.9-3.1
		c1.4-0.7,2.3-2.1,2.3-3.6c0-2.2-1.8-3.9-4.1-3.9c-0.6,0-1,0.1-1.7,0.4c-3.9,1.7-7.2,2.6-10.4,2.6c-6.2,0-10-4-10-10.5V660h22.7
		c2.9,0,5.3-2.4,5.3-5.3v-4.9C756.8,639,749.6,631.7,738.8,631.7z M748.7,649.3v3h-19.9v-3c0-6.3,3.6-10,10-10
		C745,639.4,748.7,643.1,748.7,649.3z"/>
	<path class="st0" d="M710.8,503.3c3.6,0,7.1-0.6,10.6-1.8c1.6-0.5,2.8-2.1,2.8-3.8v-42.3c0-1.8-1.4-3.2-3.2-3.2
		c-1.8,0-3.2,1.4-3.2,3.2v12.1c-2.3-1-4.6-1.5-7-1.5c-8.1,0-13.3,5.3-13.3,13.4v10.6C697.5,497.9,702.8,503.3,710.8,503.3z
		 M703.8,490.3V479c0-4.5,2.5-7,7-7c2.9,0,5.3,0.8,7,2.3v22.1c-2.3,0.6-4.6,1-7,1C706.4,497.3,703.8,494.7,703.8,490.3z"/>
	<path class="st0" d="M743.4,503.3c3.7,0,7.1-0.8,10.2-2.3c1.1-0.6,1.8-1.6,1.8-2.8c0-1.7-1.4-3-3.2-3c-0.4,0-0.8,0.1-1.3,0.3
		c-2.8,1.3-5.2,1.8-7.5,1.8c-4.3,0-7-2.8-7-7.4v-3h16.3c2.2,0,4.1-1.8,4.1-4.1v-3.6c0-8-5.4-13.4-13.3-13.4c-8,0-13.4,5.4-13.4,13.4
		v10.6C730,497.9,735.4,503.3,743.4,503.3z M736.4,480.9v-2c0-4.5,2.6-7,7-7c4.4,0,7,2.6,7,7v2H736.4z"/>
	<path class="st0" d="M455.3,631.8c-1.8,0-3.2,1.4-3.2,3.2V647c-2.3-1-4.6-1.5-7-1.5c-8.1,0-13.3,5.3-13.3,13.4v10.6
		c0,8,5.4,13.4,13.3,13.4c3.6,0,7.1-0.6,10.6-1.8c1.6-0.5,2.8-2.1,2.8-3.8V635C458.5,633.2,457.1,631.8,455.3,631.8z M452.1,653.8
		v22.1c-2.3,0.6-4.6,1-7,1c-4.4,0-7-2.6-7-7v-11.3c0-4.5,2.5-7,7-7C448,651.5,450.4,652.3,452.1,653.8z"/>
	<path class="st0" d="M477.7,645.5c-8,0-13.4,5.4-13.4,13.4v10.6c0,8,5.4,13.4,13.4,13.4c3.7,0,7.1-0.8,10.2-2.3
		c1.1-0.6,1.8-1.6,1.8-2.8c0-1.7-1.4-3-3.2-3c-0.4,0-0.8,0.1-1.3,0.3c-2.8,1.3-5.2,1.8-7.5,1.8c-4.3,0-7-2.8-7-7.4v-3H487
		c2.2,0,4.1-1.8,4.1-4.1v-3.6C491,650.9,485.7,645.5,477.7,645.5z M470.7,660.5v-2c0-4.5,2.6-7,7-7c4.4,0,7,2.6,7,7v2H470.7z"/>
</g>
<path class="st3" d="M717.7,149.2c0.2-32.6-22.4-59.1-50.4-59.2c-28-0.1-50.8,26.1-51,58.7c-0.1,25.8,14,47.8,33.9,55.9
	c0.2,0.1,0.5,0.2,0.7,0.3c0.3,0.1,0.5,0.2,0.8,0.3c5.1,2,10.7,3,16.5,3c21.5,0,39.5-14.6,44.7-34.4C716,166.3,717.7,158,717.7,149.2
	z"/>
<circle class="st1" cx="668.2" cy="162" r="34.2"/>
</svg>
